<?xml version="1.0" standalone="no"?>
<svg viewBox="0 0 200 200" xmlns="http://www.w3.org/2000/svg">
  <path fill="#BAE6FF" d="M40.3,-73.1C51.7,-63.2,59.9,-51.3,68.5,-38.8C77.1,-26.3,85.9,-13.1,87.6,1C89.3,15.1,83.8,30.1,75.6,43.4C67.5,56.6,56.7,68.1,43.6,76C30.6,83.9,15.3,88.4,0.2,88.1C-14.9,87.7,-29.8,82.5,-41.1,73.6C-52.4,64.7,-60.2,51.9,-68.3,39C-76.4,26.1,-84.9,13.1,-86.8,-1.1C-88.7,-15.2,-84,-30.5,-76.6,-44.8C-69.3,-59.1,-59.4,-72.4,-46.2,-81.2C-33,-90.1,-16.5,-94.5,-1,-92.7C14.5,-91,28.9,-83.1,40.3,-73.1Z" transform="translate(100 100)" />
</svg>
